<?xml version="1.0" encoding="UTF-8"?>
<svg width="204px" height="134px" viewBox="0 0 204 134" version="1.1" xmlns="http://www.w3.org/2000/svg" xmlns:xlink="http://www.w3.org/1999/xlink">
    <title>Path</title>
    <defs>
        <linearGradient x1="50%" y1="0%" x2="50%" y2="100%" id="linearGradient-1">
            <stop stop-color="#FAC682" offset="0%"></stop>
            <stop stop-color="#ECD7F7" offset="50.6345367%"></stop>
            <stop stop-color="#FAC682" offset="100%"></stop>
        </linearGradient>
    </defs>
    <g id="Lo-Fi/Hi-FI" stroke="none" stroke-width="1" fill="none" fill-rule="evenodd">
        <g id="Calming-Game-Screen" transform="translate(-98, -226)" fill="url(#linearGradient-1)" stroke="#080808" stroke-width="4">
            <path d="M139.401578,229.209881 C161.911223,227.955949 176.540073,228.010073 183.288127,229.372256 C185.251083,229.768504 186.882886,230.184235 188.183536,230.619448 L188.184074,230.61784 C189.755472,231.143077 190.603553,232.842736 190.078316,234.414134 C189.873771,235.026089 189.477377,235.555789 188.947958,235.924629 C185.793529,238.118441 182.313365,241.806919 178.506514,246.988697 C173.637438,253.616346 172.719292,259.375695 175.752077,264.266743 L175.750039,264.268004 C175.788253,264.329776 175.828699,264.390139 175.871296,264.448974 C177.805266,267.128324 179.528416,268.849685 181.039003,269.61432 C185.892392,272.071027 191.954879,271.968423 194.349779,269.61432 C195.755729,268.23232 196.880557,267.074407 197.724265,266.140579 L197.72394,266.140286 C198.836406,264.912448 200.733597,264.81892 201.961435,265.931386 C202.021796,265.986075 202.079905,266.0432 202.135617,266.102618 C203.476562,267.538423 204.551065,268.708142 205.35641,269.61432 C207.240659,271.734487 217.404837,272.877008 221.538458,269.61432 C224.139463,267.561333 226.160464,265.067178 227.601462,262.131853 L227.601897,262.132066 C227.772979,261.782706 227.874484,261.403408 227.900759,261.015295 C228.223139,256.208234 226.730676,251.532698 223.423504,246.988697 C220.807657,243.394566 217.675729,240.103768 214.02772,237.116302 L214.027337,237.116769 C212.746654,236.065571 212.56062,234.175208 213.611818,232.894525 C213.882675,232.564537 214.220842,232.296159 214.603722,232.107324 C218.300379,230.284552 221.240007,229.372256 223.423504,229.372256 C235.793958,229.372256 248.164412,229.372256 260.534866,229.372256 L260.534866,229.372256 C262.19172,229.373142 263.534148,230.717006 263.533262,232.37386 C263.533244,232.407503 263.53266,232.441144 263.531511,232.474768 C262.960734,249.161499 262.99777,261.165826 263.642618,268.487748 C264.668828,280.13986 267.795172,284.074933 272.070417,286.367726 C276.345663,288.660519 282.512013,282.660409 284.646985,279.399463 C285.96223,277.390563 286.926528,274.452823 287.539879,270.586242 L287.540113,270.586279 C287.654307,269.868704 288.025051,269.21696 288.583488,268.752092 C290.635974,267.046551 292.488169,267.333839 294.140377,269.61432 C296.975898,273.528084 300,284.618043 300,290.743838 C300,296.869633 298.798084,307.479704 295.827754,310.413109 C292.857425,313.346513 289.091119,313.356415 287.683961,310.413109 C286.276804,307.469802 283.613958,300.778807 280.466408,297.992416 C277.318858,295.206025 271.926521,293.893572 267.787599,299.073304 C265.028654,302.526037 263.646994,311.073976 263.642619,324.717121 L263.642623,324.717121 C263.642617,324.720082 263.642616,324.723044 263.64262,324.726005 L263.642618,353.559189 C263.642618,355.216043 262.299472,356.559189 260.642618,356.559189 L223.762263,356.559187 C223.532287,356.558931 223.303103,356.532232 223.079227,356.479615 C215.479828,354.689965 211.259192,352.862227 210.417518,350.995547 C209.136081,348.15355 221.814133,341.789335 225.672078,335.63688 C228.153462,331.679694 228.917364,326.73461 227.963784,320.801629 L227.963227,320.801719 C227.891641,320.359614 227.721977,319.939146 227.466685,319.571169 C224.696041,315.581436 220.977088,313.069626 216.30895,312.036345 C212.028689,311.08892 207.659224,313.043464 203.200555,317.899978 L203.201717,317.901046 C202.107873,319.090804 200.268135,319.200213 199.04099,318.148484 C194.296921,314.073131 190.758694,312.036345 188.427838,312.036345 C184.399489,312.036345 178.017853,313.749465 175.855337,317.871923 C173.692821,321.99438 172.170854,331.406258 175.855337,335.63688 C177.995923,338.094759 182.266359,342.298703 188.666644,348.248712 L188.667211,348.248102 C189.880209,349.376731 189.948604,351.274994 188.819976,352.487992 C188.560675,352.766677 188.250705,352.993466 187.90661,353.156257 C184.60487,354.718189 180.587878,355.852709 175.855337,356.559189 C169.496139,357.508499 157.351892,357.555605 139.422597,356.700508 L139.4226,356.700442 C137.825383,356.623534 136.569225,355.30736 136.566891,353.708294 L136.566885,316.305732 C136.566678,316.152084 136.554667,315.998678 136.530959,315.84687 C134.885878,305.379758 131.339515,299.78853 125.891111,299.073304 C117.657193,297.992416 116.136433,314.294861 111.470394,316.083392 C106.804356,317.871923 103.266013,317.106389 101.349916,308.793681 C99.4338181,300.480972 99.6701116,281.175045 101.349916,278.249258 C103.02972,275.323471 106.584724,267.387817 112.836655,274.025491 C119.088586,280.663165 115.688838,278.249258 123.134354,288.107507 C130.57987,297.965755 136.566887,266.959727 136.566887,257.372652 C136.566887,248.983699 136.566887,240.594746 136.566887,232.205792 C136.566593,230.612953 137.811155,229.297568 139.401574,229.209796 Z" id="Path"></path>
        </g>
    </g>
</svg>